<svg width="31" height="31" viewBox="0 0 31 31" fill="none" xmlns="http://www.w3.org/2000/svg">
<path d="M10.8499 20.0208H12.1416V21.3125H10.8499V20.0208Z" fill="#FEFEFE"/>
<path fill-rule="evenodd" clip-rule="evenodd" d="M9.55827 3.22913C8.61988 3.22913 7.79835 3.72946 7.3459 4.47792L7.54203 4.81764C8.06269 4.92669 8.53651 5.24845 8.82342 5.74539L9.46925 6.86401C9.75616 7.36095 9.79791 7.93217 9.63202 8.4376L9.86866 8.84748C10.1056 8.57099 10.4573 8.39579 10.8499 8.39579H12.1416C12.855 8.39579 13.4333 8.97409 13.4333 9.68746V10.9791C13.4333 11.6925 12.855 12.2708 12.1416 12.2708H11.8451L12.6325 13.6346L12.6507 13.6667C13.1109 13.8642 13.4333 14.3215 13.4333 14.8541V16.1458C13.4333 16.8592 12.855 17.4375 12.1416 17.4375H10.8499C10.1366 17.4375 9.55827 16.8592 9.55827 16.1458V15.9684C9.45248 15.8458 9.35811 15.7132 9.27663 15.5721L6.97494 11.5854L6.97494 22.6041C6.97494 24.0309 8.13153 25.1875 9.55827 25.1875H23.7666C25.1933 25.1875 26.3499 24.0309 26.3499 22.6041V5.81246C26.3499 4.38572 25.1933 3.22913 23.7666 3.22913L9.55827 3.22913ZM10.2041 5.81246C9.84742 5.81246 9.55827 6.10161 9.55827 6.45829C9.55827 6.81498 9.84742 7.10413 10.2041 7.10413L23.1208 7.10413C23.4775 7.10413 23.7666 6.81498 23.7666 6.45829C23.7666 6.10161 23.4775 5.81246 23.1208 5.81246L10.2041 5.81246ZM15.3708 8.39579C15.0141 8.39579 14.7249 8.68494 14.7249 9.04163C14.7249 9.39831 15.0141 9.68746 15.3708 9.68746H23.1208C23.4775 9.68746 23.7666 9.39831 23.7666 9.04163C23.7666 8.68494 23.4775 8.39579 23.1208 8.39579H15.3708ZM15.3708 13.5625C15.0141 13.5625 14.7249 13.8516 14.7249 14.2083C14.7249 14.565 15.0141 14.8541 15.3708 14.8541H23.1208C23.4775 14.8541 23.7666 14.565 23.7666 14.2083C23.7666 13.8516 23.4775 13.5625 23.1208 13.5625H15.3708ZM15.3708 18.7291C15.0141 18.7291 14.7249 19.0183 14.7249 19.375C14.7249 19.7316 15.0141 20.0208 15.3708 20.0208H23.1208C23.4775 20.0208 23.7666 19.7316 23.7666 19.375C23.7666 19.0183 23.4775 18.7291 23.1208 18.7291H15.3708ZM15.3708 10.9791C15.0141 10.9791 14.7249 11.2683 14.7249 11.625C14.7249 11.9816 15.0141 12.2708 15.3708 12.2708H22.4749C22.8316 12.2708 23.1208 11.9816 23.1208 11.625C23.1208 11.2683 22.8316 10.9791 22.4749 10.9791H15.3708ZM15.3708 16.1458C15.0141 16.1458 14.7249 16.4349 14.7249 16.7916C14.7249 17.1483 15.0141 17.4375 15.3708 17.4375H21.8291C22.1858 17.4375 22.4749 17.1483 22.4749 16.7916C22.4749 16.4349 22.1858 16.1458 21.8291 16.1458H15.3708ZM15.3708 21.3125C15.0141 21.3125 14.7249 21.6016 14.7249 21.9583C14.7249 22.315 15.0141 22.6041 15.3708 22.6041H22.4749C22.8316 22.6041 23.1208 22.315 23.1208 21.9583C23.1208 21.6016 22.8316 21.3125 22.4749 21.3125H15.3708ZM10.8499 18.7291C10.1366 18.7291 9.55827 19.3074 9.55827 20.0208V21.3125C9.55827 22.0258 10.1366 22.6041 10.8499 22.6041H12.1416C12.855 22.6041 13.4333 22.0258 13.4333 21.3125V20.0208C13.4333 19.3074 12.855 18.7291 12.1416 18.7291H10.8499Z" fill="#FEFEFE"/>
<path d="M11.0994 10.9791L10.8499 10.5471V9.68746H12.1416V10.9791H11.0994Z" fill="#FEFEFE"/>
<path d="M5.68327 9.34816L4.67051 7.59401C4.49588 7.81429 4.3916 8.09286 4.3916 8.39579L4.3916 23.25C4.3916 25.7467 6.41565 27.7708 8.91244 27.7708H21.1833C21.8966 27.7708 22.4749 27.1925 22.4749 26.4791H8.91244C7.12902 26.4791 5.68327 25.0334 5.68327 23.25L5.68327 9.34816Z" fill="#FEFEFE"/>
<path d="M5.29452 4.79983C4.98562 4.97817 4.87979 5.37315 5.05813 5.68205L10.3953 14.9262C10.4955 15.0999 10.6348 15.2478 10.8022 15.3583L11.7529 15.986L11.6846 14.8488C11.6726 14.6487 11.6141 14.454 11.5139 14.2804L8.11425 8.39207C8.42314 8.21372 8.52898 7.81874 8.35064 7.50984L7.7048 6.39122C7.52646 6.08233 7.13148 5.97649 6.82258 6.15483L6.17675 5.03622C5.9984 4.72732 5.60342 4.62148 5.29452 4.79983Z" fill="#FEFEFE"/>
</svg>
