<svg width="35" height="35" viewBox="0 0 35 35" fill="none" xmlns="http://www.w3.org/2000/svg">
<path d="M6.94451 9.89182C6.94451 8.36772 8.18003 7.1322 9.70412 7.1322L26.2618 7.1322C27.7859 7.1322 29.0214 8.36773 29.0214 9.89182V20.2404C29.0214 21.7645 27.7859 23 26.2618 23H18.8665L21.2813 26.0185C21.5193 26.3161 21.4711 26.7502 21.1736 26.9882C20.876 27.2263 20.4419 27.178 20.2039 26.8805L17.983 24.1044L15.7621 26.8805C15.5241 27.178 15.0899 27.2263 14.7924 26.9882C14.4949 26.7502 14.4466 26.3161 14.6846 26.0185L17.0994 23H12.964L13.1651 21.6202H26.2618C27.0238 21.6202 27.6416 21.0024 27.6416 20.2404V9.89182C27.6416 9.12977 27.0238 8.51201 26.2618 8.51201L9.70412 8.51201C8.94207 8.51201 8.32431 9.12977 8.32431 9.89182V11.4229C7.80029 11.5838 7.3294 11.8661 6.94451 12.237V9.89182Z" fill="#FEFEFE"/>
<path d="M11.4076 14.7211C11.4076 15.8642 10.4809 16.7909 9.33786 16.7909C8.19479 16.7909 7.26815 15.8642 7.26815 14.7211C7.26815 13.5781 8.19479 12.6514 9.33786 12.6514C10.4809 12.6514 11.4076 13.5781 11.4076 14.7211Z" fill="#FEFEFE"/>
<path d="M8.94345 27.8293C8.27422 27.8293 7.67651 27.3564 7.55318 26.7038L7.09274 23.6899L5.85856 22.119C5.60977 21.8023 5.51235 21.3938 5.59171 21.0001L6.16206 18.1707C6.4004 17.7623 7.03164 17.4808 7.55318 17.4808H8.2481L9.29112 20.9303L10.3341 17.4808H11.4297C11.6243 17.4808 11.8167 17.5213 11.9945 17.5997L14.8539 18.8606L16.9541 17.6699C17.1513 17.558 17.3989 17.5911 17.5598 17.7508C17.7815 17.9707 17.7529 18.337 17.4999 18.5199L15.4241 20.0203C15.0657 20.2794 14.6043 20.3533 14.1819 20.2194L12.0725 19.5505L11.0295 26.7038C10.9062 27.3564 10.308 27.8293 9.6388 27.8293H8.94345Z" fill="#FEFEFE"/>
</svg>
