<svg width="19" height="19" viewBox="0 0 19 19" fill="none" xmlns="http://www.w3.org/2000/svg">
<path fill-rule="evenodd" clip-rule="evenodd" d="M9.46438 12.6755L3.21057 14.4888L4.76716 8.16619L6.70898 10.0303L9.84127 6.76753C9.94761 6.65676 10.0945 6.59415 10.2481 6.59415C10.4016 6.59415 10.5485 6.65676 10.6549 6.76753L12.9548 9.1633L16.3374 5.63973C16.5531 5.41506 16.9101 5.40778 17.1347 5.62346C17.3594 5.83914 17.3667 6.1961 17.151 6.42077L13.3616 10.3681C13.2552 10.4788 13.1083 10.5415 12.9548 10.5415C12.8012 10.5415 12.6543 10.4788 12.548 10.3681L10.2481 7.97231L7.52256 10.8114L9.46438 12.6755Z" fill="#FEFEFE"/>
</svg>
