<svg width="26" height="24" viewBox="0 0 26 24" fill="none" xmlns="http://www.w3.org/2000/svg">
<path d="M16.6777 0.00878137L20.5901 0.00630513C22.7928 0.0048017 25.2677 -0.0076241 25.8802 2.70539C26.0627 3.51353 25.9823 4.4656 25.9827 5.28969L25.9823 13.3413C25.9824 14.045 26.017 14.765 25.9693 15.4666C25.8283 17.535 24.0181 19.0865 21.8518 18.954C21.8292 19.6331 21.9552 22.6074 21.7993 23.0585C21.2278 23.6524 20.4779 22.8772 19.9532 22.5565C18.6745 21.7749 17.3985 20.982 16.1384 20.1733C15.6093 19.8335 14.6244 18.9035 13.9844 18.954C13.4953 18.9163 13.0105 18.9449 12.5208 18.9506L10.6314 18.9548C8.76111 18.9561 6.88358 18.9132 5.01486 18.9494C2.21038 19.004 0.0214972 18.273 0.00450875 15.1968L3.12703e-05 4.89276C-0.00290309 2.7508 0.195091 0.61785 2.96992 0.0878444C3.611 -0.0345972 4.29625 0.00657065 4.94814 0.00696861L16.6777 0.00878137ZM19.5704 1.02849L5.15818 1.02777C4.5435 1.02817 3.86073 0.983982 3.25548 1.08451C0.4876 1.54409 1.07725 4.56952 1.07756 6.49185L1.07833 12.825C1.07833 17.5688 1.14196 17.9252 5.78258 17.9239L10.4518 17.923L13.2808 17.9203C13.6283 17.9178 14.0791 17.8483 14.4156 17.9081C14.8535 17.9859 19.7645 21.3073 20.8101 21.8422L20.8067 19.6115C20.8064 19.3005 20.6769 18.4122 20.9208 18.1765C21.4417 17.673 23.4525 18.4737 24.5159 16.5811C25.1148 15.5154 24.9369 14.3054 24.9378 13.1337L24.9375 5.58493C24.9444 1.14336 24.4717 1.01315 19.5704 1.02849Z" fill="#FEFEFE"/>
<path d="M5.67526 5.68923L8.83634 5.68569C9.40005 5.68496 9.97472 5.66344 10.5372 5.691C11.2898 5.7277 11.3395 6.39187 10.8127 6.75741C10.0275 6.75638 5.97456 6.84172 5.56499 6.71304C4.95449 6.52143 5.16344 5.87023 5.67526 5.68923Z" fill="#FEFEFE"/>
<path d="M5.67502 9.05691H15.3754C16.3637 9.05677 19.3976 8.9505 20.1726 9.15773C20.5368 9.4509 20.3952 9.94394 19.9688 10.0745C18.7567 10.0402 17.5315 10.0747 16.3183 10.0756L9.45618 10.0728C8.67425 10.0728 6.07704 10.2477 5.47858 9.98801C4.96924 9.76707 5.22622 9.1651 5.67502 9.05691Z" fill="#FEFEFE"/>
<path d="M5.67562 12.441L15.8501 12.4415C16.6111 12.4413 19.5459 12.3493 20.0645 12.4973C20.6211 12.6562 20.3976 13.3056 19.9694 13.4685C19.1442 13.513 18.2931 13.4706 17.4654 13.4694L7.89524 13.4688C7.18265 13.469 6.43794 13.5145 5.72844 13.4734C5.03547 13.4331 5.03608 12.6042 5.67562 12.441Z" fill="#FEFEFE"/>
</svg>
