<svg width="32" height="32" viewBox="0 0 32 32" fill="none" xmlns="http://www.w3.org/2000/svg">
<path fill-rule="evenodd" clip-rule="evenodd" d="M8.69493 14.1879C9.36869 14.4954 10.1176 14.6667 10.9066 14.6667C13.8521 14.6667 16.2399 12.2789 16.2399 9.33333C16.2399 6.38781 13.8521 4 10.9066 4C7.96105 4 5.57323 6.38781 5.57323 9.33333C5.57323 11.0116 6.34843 12.5089 7.56029 13.4865L5.41853 17.1962C5.23443 17.515 5.34368 17.9227 5.66255 18.1068C5.98141 18.2909 6.38914 18.1817 6.57323 17.8628L8.69493 14.1879ZM10.9066 13.3333C8.69742 13.3333 6.90656 11.5425 6.90656 9.33333C6.90656 7.12419 8.69742 5.33333 10.9066 5.33333C13.1157 5.33333 14.9066 7.12419 14.9066 9.33333C14.9066 11.5425 13.1157 13.3333 10.9066 13.3333Z" fill="#FEFEFE"/>
<path d="M23.3332 8C22.5969 8 21.9999 8.59695 21.9999 9.33333V24C21.9999 24.7364 22.5969 25.3333 23.3332 25.3333H24.2384C23.4325 24.6899 22.8574 23.716 22.8574 22.331C22.8574 20.561 23.9881 19.1659 25.47 18.5161C25.6017 18.2604 25.7825 18.0341 25.9999 17.8497V9.33333C25.9999 8.59695 25.403 8 24.6666 8H23.3332Z" fill="#FEFEFE"/>
<path d="M16.6666 13.3333C16.6666 12.597 17.2635 12 17.9999 12H19.3332C20.0696 12 20.6666 12.597 20.6666 13.3333V24C20.6666 24.7364 20.0696 25.3333 19.3332 25.3333H17.9999C17.2635 25.3333 16.6666 24.7364 16.6666 24V13.3333Z" fill="#FEFEFE"/>
<path d="M12.6666 16C11.9302 16 11.3332 16.597 11.3332 17.3333V24C11.3332 24.7364 11.9302 25.3333 12.6666 25.3333H13.9999C14.7363 25.3333 15.3332 24.7364 15.3332 24L15.3332 17.3333C15.3332 16.597 14.7363 16 13.9999 16H12.6666Z" fill="#FEFEFE"/>
<path d="M7.33324 20C6.59686 20 5.99991 20.597 5.99991 21.3333V24C5.99991 24.7364 6.59686 25.3333 7.33324 25.3333H8.66657C9.40295 25.3333 9.99991 24.7364 9.99991 24V21.3333C9.99991 20.597 9.40295 20 8.66657 20H7.33324Z" fill="#FEFEFE"/>
<path d="M26.5631 30.3466C26.5631 30.5234 26.7063 30.6666 26.8831 30.6666H27.9336C28.1103 30.6666 28.2536 30.5234 28.2536 30.3466V29.6177C29.6442 29.268 30.6667 28.1072 30.6667 26.7366C30.6667 24.6806 29.1943 24.0512 27.6673 23.6177C26.604 23.296 25.895 23.1282 25.895 22.2331C25.895 21.5058 26.5903 21.0582 27.4356 21.0582C28.2536 21.0582 28.9489 21.6037 28.9489 22.3449H30.6667C30.6667 21.0023 29.6305 19.8694 28.2536 19.5477V18.9866C28.2536 18.8099 28.1103 18.6666 27.9336 18.6666H26.8831C26.7063 18.6666 26.5631 18.8099 26.5631 18.9866V19.5477C25.1997 19.8834 24.1909 20.9883 24.1909 22.331C24.1909 24.4149 25.9632 24.8345 27.1493 25.1701C28.199 25.4918 28.9489 25.8135 28.9489 26.7366C28.9489 27.5477 28.2263 28.1212 27.3265 28.1212C26.4267 28.1212 25.6905 27.5477 25.6905 26.7505H24C24 28.1771 25.0907 29.3659 26.5631 29.6736V30.3466Z" fill="#FEFEFE"/>
</svg>
