<svg width="19" height="19" viewBox="0 0 19 19" fill="none" xmlns="http://www.w3.org/2000/svg">
<path fill-rule="evenodd" clip-rule="evenodd" d="M9.53562 6.32448L15.7894 4.51123L14.2328 10.8338L12.291 8.96966L9.15873 12.2325C9.05239 12.3432 8.90549 12.4058 8.75194 12.4058C8.59839 12.4058 8.45149 12.3432 8.34515 12.2325L6.04521 9.8367L2.66259 13.3603C2.44691 13.5849 2.08994 13.5922 1.86528 13.3765C1.64061 13.1609 1.63333 12.8039 1.84901 12.5792L5.63842 8.63192C5.74476 8.52115 5.89167 8.45854 6.04521 8.45854C6.19876 8.45854 6.34567 8.52115 6.452 8.63192L8.75194 11.0277L11.4774 8.18862L9.53562 6.32448Z" fill="#FEFEFE"/>
</svg>
