<svg width="1082" height="110" viewBox="0 0 1082 110" fill="none" xmlns="http://www.w3.org/2000/svg">
<path d="M5.53509 25.1012L0 31.1201V109.301H1082V71.1782L1074.47 69.6256C1066.94 68.073 1051.89 64.9677 1036.83 65.232C1021.78 65.4964 1006.72 69.1304 991.667 65.8971C976.612 62.6639 961.556 52.5635 946.501 59.1967C931.445 65.8298 916.39 89.1965 901.334 88.0295C886.279 86.8626 871.224 61.162 856.168 49.2148C841.113 37.2677 826.057 39.0739 811.002 38.652C795.946 38.2301 780.891 35.58 765.835 31.9619C750.78 28.3438 735.724 23.7576 720.669 19.6232C705.614 15.4888 690.558 11.806 675.503 23.0692C660.447 34.3323 645.392 60.5413 630.336 60.8754C615.281 61.2095 600.225 35.6688 585.17 32.8407C570.115 30.0126 555.059 49.8971 540.004 61.4281C524.948 72.959 509.893 76.1365 494.837 79.7546C479.782 83.3726 464.726 87.4313 449.671 75.9255C434.615 64.4198 419.56 37.3496 404.505 35.7229C389.449 34.0962 374.394 57.913 359.338 67.8123C344.283 77.7117 329.227 73.6936 314.172 67.2604C299.116 60.8271 284.061 51.9786 269.006 44.9319C253.95 37.8852 238.895 32.6402 223.839 37.2872C208.784 41.9342 193.728 56.4732 178.673 59.2902C163.617 62.1073 148.562 53.2024 133.506 41.978C118.451 30.7537 103.396 17.2099 88.3401 9.1406C73.2846 1.07133 58.2292 -1.52342 43.1737 3.02307C28.1183 7.56956 13.0628 19.2573 5.53509 25.1012Z" fill="url(#paint0_linear_2554_3042)"/>
<defs>
<linearGradient id="paint0_linear_2554_3042" x1="541" y1="0.795166" x2="541" y2="109.301" gradientUnits="userSpaceOnUse">
<stop stop-color="#3B9663" stop-opacity="0.8"/>
<stop offset="1" stop-color="#3B9663" stop-opacity="0"/>
</linearGradient>
</defs>
</svg>
