<svg width="206" height="25" viewBox="0 0 206 25" fill="none" xmlns="http://www.w3.org/2000/svg">
<rect opacity="0.4" width="5.02439" height="24.3018" fill="#FEFEFE" fill-opacity="0.6"/>
<rect opacity="0.4" x="10.0483" y="16.4395" width="5.02439" height="7.86233" fill="#FEFEFE" fill-opacity="0.6"/>
<rect opacity="0.4" x="20.0972" y="12.5082" width="5.02439" height="11.7935" fill="#FEFEFE" fill-opacity="0.6"/>
<rect opacity="0.4" x="30.146" y="12.5082" width="5.02439" height="11.7935" fill="#FEFEFE" fill-opacity="0.6"/>
<rect opacity="0.4" x="40.1948" y="7.505" width="5.02439" height="16.7968" fill="#FEFEFE" fill-opacity="0.6"/>
<rect opacity="0.4" x="50.2432" y="12.5082" width="5.02439" height="11.7935" fill="#FEFEFE" fill-opacity="0.6"/>
<rect opacity="0.4" x="60.2915" y="15.0099" width="5.02439" height="9.29185" fill="#FEFEFE" fill-opacity="0.6"/>
<rect opacity="0.4" x="70.3408" y="7.505" width="5.02439" height="16.7968" fill="#FEFEFE" fill-opacity="0.6"/>
<rect opacity="0.4" x="80.3892" y="12.5082" width="5.02439" height="11.7935" fill="#FEFEFE" fill-opacity="0.6"/>
<rect opacity="0.4" x="90.438" y="16.4393" width="5.02439" height="7.86233" fill="#FEFEFE" fill-opacity="0.6"/>
<rect opacity="0.4" x="100.486" y="12.5082" width="5.02439" height="11.7935" fill="#FEFEFE" fill-opacity="0.6"/>
<rect opacity="0.4" x="110.535" y="7.505" width="5.02439" height="16.7968" fill="#FEFEFE" fill-opacity="0.6"/>
<rect opacity="0.4" x="120.583" y="16.4393" width="5.02439" height="7.86233" fill="#FEFEFE" fill-opacity="0.6"/>
<rect opacity="0.4" x="130.632" y="16.4393" width="5.02439" height="7.86233" fill="#FEFEFE" fill-opacity="0.6"/>
<rect opacity="0.4" x="140.68" y="0.00012207" width="5.02439" height="24.3018" fill="#FEFEFE" fill-opacity="0.6"/>
<rect opacity="0.4" x="150.729" y="12.5082" width="5.02439" height="11.7935" fill="#FEFEFE" fill-opacity="0.6"/>
<rect opacity="0.4" x="160.778" y="16.4393" width="5.02439" height="7.86233" fill="#FEFEFE" fill-opacity="0.6"/>
<rect opacity="0.4" x="170.827" y="18.941" width="5.02439" height="5.36068" fill="#FEFEFE" fill-opacity="0.6"/>
<rect opacity="0.4" x="180.875" y="16.4393" width="5.02439" height="7.86233" fill="#FEFEFE" fill-opacity="0.6"/>
<rect opacity="0.4" x="190.924" y="12.5082" width="5.02439" height="11.7935" fill="#FEFEFE" fill-opacity="0.6"/>
<rect opacity="0.4" x="200.972" y="10.7213" width="5.02439" height="13.5804" fill="#FEFEFE" fill-opacity="0.6"/>
</svg>
